<svg width="66" height="66" viewBox="0 0 66 66" fill="none" class="w-12 h-12 hover:brightness-200 brightness-95" xmlns="http://www.w3.org/2000/svg"> <g clip-path="url(#clip0_1103_3)"> <path d="M28.98 57.54C26.78 57.54 24.88 57.08 23.28 56.16C21.72 55.2 20.52 53.9 19.68 52.26C18.88 50.62 18.48 48.74 18.48 46.62C18.48 43.54 19.16 40.88 20.52 38.64C21.92 36.36 23.6 34.34 25.56 32.58C24.84 31.14 24.06 29.7 23.22 28.26C22.42 26.78 21.72 25.26 21.12 23.7C20.56 22.1 20.28 20.44 20.28 18.72C20.28 16.56 20.7 14.68 21.54 13.08C22.38 11.48 23.58 10.24 25.14 9.36C26.7 8.44 28.54 7.98 30.66 7.98C32.62 7.98 34.36 8.34 35.88 9.06C37.44 9.78 38.68 10.82 39.6 12.18C40.52 13.5 40.98 15.1 40.98 16.98C40.98 19.1 40.48 21.14 39.48 23.1C38.52 25.02 37.34 26.82 35.94 28.5C34.54 30.14 33.18 31.6 31.86 32.88L39.18 44.4C39.62 43.56 39.98 42.62 40.26 41.58C40.58 40.5 40.84 39.36 41.04 38.16C41.28 36.96 41.46 35.8 41.58 34.68H47.94C47.94 36.24 47.7 37.88 47.22 39.6C46.78 41.32 46.2 42.96 45.48 44.52C44.76 46.04 44.02 47.34 43.26 48.42C43.78 49.06 44.46 49.64 45.3 50.16C46.14 50.64 47.04 50.88 48 50.88V57.48C47.84 57.48 47.68 57.48 47.52 57.48C47.4 57.48 47.28 57.48 47.16 57.48C46 57.44 44.96 57.18 44.04 56.7C43.12 56.18 42.28 55.56 41.52 54.84C40.8 54.12 40.1 53.44 39.42 52.8C38.34 54.16 36.92 55.3 35.16 56.22C33.44 57.1 31.38 57.54 28.98 57.54ZM28.98 52.2C30.5 52.2 31.78 51.84 32.82 51.12C33.86 50.36 34.76 49.52 35.52 48.6L28.08 37.14C27.12 38.38 26.34 39.84 25.74 41.52C25.18 43.16 24.9 44.86 24.9 46.62C24.9 47.54 25.02 48.44 25.26 49.32C25.5 50.16 25.92 50.86 26.52 51.42C27.12 51.94 27.94 52.2 28.98 52.2ZM29.64 29.4C30.48 28.4 31.26 27.22 31.98 25.86C32.74 24.5 33.36 23.06 33.84 21.54C34.32 19.98 34.56 18.46 34.56 16.98C34.56 15.82 34.2 14.92 33.48 14.28C32.76 13.6 31.82 13.26 30.66 13.26C29.22 13.26 28.2 13.82 27.6 14.94C27 16.06 26.7 17.32 26.7 18.72C26.7 20.56 27 22.4 27.6 24.24C28.24 26.04 28.92 27.76 29.64 29.4Z" fill="white"></path> </g> <defs> <clipPath id="clip0_1103_3"> <rect width="66" height="66" fill="white"></rect> </clipPath> </defs> </svg>